<?xml version="1.0" encoding="utf-8"?>
<!-- Generator: Adobe Illustrator 24.1.0, SVG Export Plug-In . SVG Version: 6.00 Build 0)  -->
<svg version="1.1" id="Слой_1" xmlns="http://www.w3.org/2000/svg" xmlns:xlink="http://www.w3.org/1999/xlink" x="0px" y="0px"
	 viewBox="0 0 93.1 25.9" style="enable-background:new 0 0 93.1 25.9;" xml:space="preserve">
<style type="text/css">
	.st0{fill-rule:evenodd;clip-rule:evenodd;fill:#A48B72;stroke:#000000;stroke-width:0.26;stroke-miterlimit:22.9256;}
	.st1{fill-rule:evenodd;clip-rule:evenodd;fill:#F7F8D9;stroke:#000000;stroke-width:0.26;stroke-miterlimit:22.9256;}
	.st2{fill-rule:evenodd;clip-rule:evenodd;fill:#D9B287;stroke:#000000;stroke-width:0.26;stroke-miterlimit:22.9256;}
</style>
<g>
	<g>
		<path d="M89.6,0.2C89.6,0.2,89.6,0.3,89.6,0.2c0,0.1,0,0.1,0,0.1c0,0,0,0,0,0s0,0,0,0h-0.8v3c0,0,0,0,0,0c0,0,0,0,0,0
			c0,0,0,0-0.1,0c0,0-0.1,0-0.1,0c0,0-0.1,0-0.1,0c0,0,0,0-0.1,0c0,0,0,0,0,0c0,0,0,0,0,0v-3h-0.8c0,0,0,0,0,0c0,0,0,0,0,0
			c0,0,0,0,0-0.1c0,0,0-0.1,0-0.1s0-0.1,0-0.1s0,0,0-0.1c0,0,0,0,0,0c0,0,0,0,0,0l2,0c0,0,0,0,0,0s0,0,0,0
			C89.6,0.1,89.6,0.1,89.6,0.2C89.6,0.1,89.6,0.2,89.6,0.2z"/>
		<path d="M93.1,3.4C93.1,3.4,93.1,3.4,93.1,3.4C93.1,3.4,93.1,3.4,93.1,3.4C93,3.4,93,3.4,93.1,3.4c-0.1,0.1-0.2,0.1-0.2,0.1
			c0,0-0.1,0-0.1,0c0,0,0,0-0.1,0c0,0,0,0,0,0c0,0,0,0,0,0v-3h0l-1,3c0,0,0,0,0,0c0,0,0,0,0,0c0,0,0,0-0.1,0c0,0,0,0-0.1,0
			c0,0-0.1,0-0.1,0s0,0-0.1,0c0,0,0,0,0,0c0,0,0,0,0,0l-0.9-3h0v3c0,0,0,0,0,0c0,0,0,0,0,0c0,0,0,0-0.1,0c0,0-0.1,0-0.1,0
			c0,0-0.1,0-0.1,0c0,0,0,0-0.1,0c0,0,0,0,0,0s0,0,0,0V0.2c0-0.1,0-0.1,0-0.2c0,0,0.1,0,0.1,0l0.2,0c0,0,0.1,0,0.1,0
			c0,0,0.1,0,0.1,0.1c0,0,0,0.1,0.1,0.1c0,0,0,0.1,0,0.1l0.8,2.5h0l0.8-2.5c0-0.1,0-0.1,0.1-0.1c0,0,0-0.1,0.1-0.1c0,0,0,0,0.1,0
			c0,0,0.1,0,0.1,0l0.2,0c0,0,0,0,0.1,0c0,0,0,0,0.1,0c0,0,0,0,0,0.1c0,0,0,0.1,0,0.1V3.4z"/>
	</g>
	<g>
		<path class="st0" d="M3.7,9.1C3.4,9.5,3.2,9.9,3,10.4L1.1,9.8c-0.1,0-0.3,0-0.4,0.2l-0.4,1.2c0,0.1,0,0.3,0.2,0.4l1.9,0.6
			c-0.2,0.7-0.2,1.4-0.3,2.1l-1.9,0.1c-0.2,0-0.3,0.1-0.3,0.3L0.1,16c0,0.2,0.1,0.3,0.3,0.3l1.9-0.1c0.1,0.7,0.3,1.3,0.6,1.9l-1.6,1
			c-0.1,0.1-0.2,0.3-0.1,0.4l0.7,1.1c0.1,0.1,0.3,0.2,0.4,0.1l1.5-1c0.4,0.6,0.9,1.2,1.5,1.7l-1.1,1.5c-0.1,0.1-0.1,0.3,0.1,0.4
			l1.1,0.8c0.1,0.1,0.3,0.1,0.4-0.1l1-1.5c0.2,0.1,0.5,0.3,0.8,0.4c0-1.4,0-4.6,0-5.2c0-1,0.8-1.8,1.8-1.1c0.7,0.5,2.5,1.5,2.9-0.7
			c0-1.2-1-2.4-2.7-1c-1.3,0.9-2-0.1-2-1.3c0-1.3,0-2.8,0-4.5H3.7z"/>
		<path class="st1" d="M20.7,17.2c0.1-0.4,0.2-0.7,0.3-1.1l2.1,0.1c0.2,0,0.3-0.1,0.3-0.3l0.1-1.3c0-0.2-0.1-0.3-0.3-0.3l-2-0.1
			c0-0.7-0.1-1.4-0.2-2.1l2-0.7c0.1,0,0.2-0.2,0.2-0.4l-0.4-1.2c0-0.1-0.2-0.2-0.4-0.2l-2,0.7c-0.3-0.6-0.6-1.2-1.1-1.8l1.6-1.5
			c0.1-0.1,0.1-0.3,0-0.4l-0.9-1c-0.1-0.1-0.3-0.1-0.4,0L18,7.3c-0.1-0.1-0.2-0.2-0.3-0.3c0,0.8,0,1.4,0,1.6c0,1-0.8,1.8-1.8,1.1
			c-0.7-0.5-2.5-1.5-2.9,0.7c0,1.2,1,2.4,2.7,1c1.3-0.9,2,0.1,2,1.3c0,1.3,0,2.8,0,4.5H20.7z"/>
		<path class="st2" d="M10.8,4.9c-0.7,0.1-1.3,0.2-1.9,0.4l-1-2C7.8,3.1,7.6,3,7.5,3.1L6.3,3.7C6.2,3.7,6.1,3.9,6.2,4L7.1,6
			C6.5,6.3,5.9,6.7,5.3,7.2L3.8,5.8c-0.1-0.1-0.3-0.1-0.4,0l-0.9,1c-0.1,0.1-0.1,0.3,0,0.4l1.4,1.3H8c0,1.7,0,3.5,0,5.2
			c0.2,1.2,0.6,1.4,1.4,0.7c1.4-1.6,3.4-0.1,3.3,1.6c-0.1,1.6-1.8,2.4-3.1,1.5C8.5,16.6,8,16.8,8,18c0,1.1,0,3.9,0,5.2
			c0.2,0.1,0.5,0.2,0.8,0.3l-0.3,1.8c0,0.1,0.1,0.3,0.2,0.3l1.3,0.2c0.1,0,0.3-0.1,0.3-0.2l0.3-1.8c0.3,0,0.7,0.1,1.1,0.1
			c0.4,0,0.8,0,1.2-0.1l0.3,1.8c0,0.1,0.2,0.2,0.3,0.2l1.3-0.2c0.1,0,0.2-0.2,0.2-0.3l-0.3-1.8c0.7-0.2,1.3-0.5,2-0.9l1.1,1.5
			c0.1,0.1,0.3,0.2,0.4,0.1l1.1-0.8c0.1-0.1,0.2-0.3,0.1-0.4l-1.1-1.6c0.5-0.5,1-1.1,1.4-1.7l1.6,1c0.1,0.1,0.3,0,0.4-0.1l0.7-1.1
			c0.1-0.1,0-0.3-0.1-0.4l-1.7-1.1c0-0.1,0.1-0.1,0.1-0.2h-3.4c0-1.7,0-3.5,0-5.2c-0.2-1.2-0.6-1.4-1.4-0.7
			c-1.4,1.6-3.4,0.1-3.3-1.6c0.1-1.6,1.8-2.4,3.1-1.5c1,0.8,1.5,0.6,1.5-0.6c0-0.4,0-1,0-1.7c-0.3-0.2-0.5-0.4-0.8-0.5l0.8-1.7
			l0-0.7L16,3.1c-0.1-0.1-0.3,0-0.4,0.1l-1,2.1C14,5.1,13.3,5,12.6,4.9V2.7c0-0.2-0.1-0.3-0.3-0.3H11c-0.2,0-0.3,0.1-0.3,0.3V4.9z"
			/>
		<rect x="73.2" y="23.1" class="st2" width="2.1" height="0.9"/>
		<rect x="43.5" y="23.1" class="st2" width="2.1" height="0.9"/>
		<polygon class="st2" points="91.2,22.9 91.2,26 90.3,26 90.3,22.9 88.5,22.9 88.5,22.2 93,22.2 93,22.9 		"/>
		<path class="st2" d="M83,25.9v-3.7h3.3c0.3,0,0.5,0.1,0.7,0.2c0.1,0.1,0.2,0.3,0.2,0.6v0.9c0,0.2-0.1,0.4-0.2,0.5
			c-0.1,0.1-0.4,0.2-0.7,0.2h-0.5l1.8,1.4h-1.3l-1.6-1.4h-0.9v1.4H83z M85.9,22.9h-2.1v1h2.1c0.1,0,0.3,0,0.3-0.1
			c0.1,0,0.1-0.1,0.1-0.2v-0.4c0-0.1,0-0.2-0.1-0.2C86.2,22.9,86.1,22.9,85.9,22.9z"/>
		<path class="st2" d="M75.3,25.9l2.6-4.5h1l2.6,4.5h-1.2l-0.5-1h-2.9l-0.5,1H75.3z M77.4,24.1h2l-1-1.9L77.4,24.1z"/>
		<path class="st2" d="M67.4,25.9v-3.7h2.5c0.7,0,1.3,0.2,1.7,0.5c0.4,0.3,0.6,0.8,0.6,1.4c0,0.6-0.2,1.1-0.6,1.4
			c-0.4,0.3-1,0.5-1.9,0.5H67.4z M68.3,25.2h1.2c0.6,0,1.1-0.1,1.3-0.3c0.3-0.2,0.4-0.5,0.4-0.9c0-0.4-0.1-0.7-0.3-0.9
			c-0.2-0.2-0.5-0.3-1-0.3h-1.6V25.2z"/>
		<path class="st2" d="M60.9,23.1c0-0.3,0.1-0.6,0.2-0.7c0.1-0.1,0.4-0.2,0.8-0.2h2.9c0.4,0,0.6,0.1,0.8,0.2
			c0.1,0.1,0.2,0.4,0.2,0.7v2c0,0.3-0.1,0.6-0.2,0.7c-0.1,0.1-0.4,0.2-0.8,0.2h-2.9c-0.4,0-0.6-0.1-0.8-0.2
			c-0.1-0.1-0.2-0.4-0.2-0.7V23.1z M61.8,25.2h3v-2.3h-3V25.2z"/>
		<path class="st2" d="M54.6,23.1c0-0.3,0.1-0.6,0.2-0.7c0.1-0.1,0.4-0.2,0.8-0.2h2.9c0.4,0,0.6,0.1,0.8,0.2
			c0.1,0.1,0.2,0.4,0.2,0.7v2c0,0.3-0.1,0.6-0.2,0.7c-0.1,0.1-0.4,0.2-0.8,0.2h-2.9c-0.4,0-0.6-0.1-0.8-0.2
			c-0.1-0.1-0.2-0.4-0.2-0.7V23.1z M55.5,25.2h3v-2.3h-3V25.2z"/>
		<polygon class="st2" points="47.7,25.9 46,21.4 47.1,21.4 48.2,24.4 49.4,21.4 50.2,21.4 51.4,24.4 52.5,21.4 53.4,21.4 
			51.7,25.9 51,25.9 49.7,22.8 48.4,25.9 		"/>
		<path class="st2" d="M37.6,23.1c0-0.3,0.1-0.6,0.2-0.7c0.1-0.1,0.4-0.2,0.8-0.2h2.9c0.4,0,0.6,0.1,0.8,0.2
			c0.1,0.1,0.2,0.4,0.2,0.7v2c0,0.3-0.1,0.6-0.2,0.7c-0.1,0.1-0.4,0.2-0.8,0.2h-2.9c-0.4,0-0.6-0.1-0.8-0.2
			c-0.1-0.1-0.2-0.4-0.2-0.7V23.1z M38.5,25.2h3v-2.3h-3V25.2z"/>
		<path class="st2" d="M35.2,22.9h-2.4v2.3h2.4v-0.8l0.9,0.2v0.4c0,0.3-0.1,0.6-0.2,0.7c-0.1,0.1-0.4,0.2-0.8,0.2h-2.3
			c-0.4,0-0.6-0.1-0.8-0.2c-0.1-0.1-0.2-0.4-0.2-0.7v-2c0-0.3,0.1-0.6,0.2-0.7c0.1-0.1,0.4-0.2,0.8-0.2h2.3c0.4,0,0.6,0.1,0.8,0.2
			c0.1,0.1,0.2,0.4,0.2,0.7v0.4l-0.9,0.1V22.9z"/>
		<polygon class="st2" points="26.1,25.9 26.1,21.4 30.8,21.4 30.8,22.2 27.2,22.2 27.2,23.2 29.3,23.2 29.3,24 27.2,24 27.2,25.1 
			30.8,25.1 30.8,25.9 		"/>
		<polygon class="st1" points="52.3,19.8 45.5,2.4 49.8,2.4 54.2,14.1 58.8,2.4 61.7,2.4 66.5,14.1 70.7,2.4 74.3,2.4 67.6,19.8 
			64.8,19.8 60,7.8 55.1,19.8 		"/>
		<polygon class="st1" points="26,19.8 26,2.4 43.9,2.4 43.9,5.3 30.1,5.3 30.1,9.2 38.1,9.2 38.1,12.2 30.1,12.2 30.1,16.6 
			44.1,16.6 44.1,19.8 		"/>
		<path class="st1" d="M77,12.9h7.6l-3.8-7.1L77,12.9L77,12.9z M69.2,19.9L79,2.4h3.9l10,17.5h-4.6L86.3,16H75.2l-2,3.8H69.2z"/>
	</g>
</g>
</svg>
